<?xml version="1.0" encoding="UTF-8" standalone="no"?>
<!-- Created with Inkscape (http://www.inkscape.org/) -->

<svg
   xmlns:dc="http://purl.org/dc/elements/1.1/"
   xmlns:cc="http://creativecommons.org/ns#"
   xmlns:rdf="http://www.w3.org/1999/02/22-rdf-syntax-ns#"
   xmlns:svg="http://www.w3.org/2000/svg"
   xmlns="http://www.w3.org/2000/svg"
   xmlns:sodipodi="http://sodipodi.sourceforge.net/DTD/sodipodi-0.dtd"
   xmlns:inkscape="http://www.inkscape.org/namespaces/inkscape"
   width="600"
   height="600"
   viewBox="0 0 600.00001 600.00001"
   id="svg4171"
   version="1.1"
   inkscape:version="0.91 r13725"
   sodipodi:docname="hex-bg-alt.svg">
  <defs
     id="defs4173" />
  <sodipodi:namedview
     id="base"
     pagecolor="#ffffff"
     bordercolor="#666666"
     borderopacity="1.0"
     inkscape:pageopacity="1"
     inkscape:pageshadow="2"
     inkscape:zoom="1.3666667"
     inkscape:cx="99.512194"
     inkscape:cy="209.34131"
     inkscape:document-units="px"
     inkscape:current-layer="layer1"
     showgrid="false"
     units="px"
     borderlayer="false"
     inkscape:window-width="1918"
     inkscape:window-height="1000"
     inkscape:window-x="0"
     inkscape:window-y="25"
     inkscape:window-maximized="1" />
  <metadata
     id="metadata4176">
    <rdf:RDF>
      <cc:Work
         rdf:about="">
        <dc:format>image/svg+xml</dc:format>
        <dc:type
           rdf:resource="http://purl.org/dc/dcmitype/StillImage" />
        <dc:title></dc:title>
      </cc:Work>
    </rdf:RDF>
  </metadata>
  <g
     inkscape:label="Layer 1"
     inkscape:groupmode="layer"
     id="layer1"
     transform="translate(0,-452.36216)">
    <path
       sodipodi:type="star"
       style="fill:none;fill-opacity:1;stroke:#000000;stroke-width:20;stroke-miterlimit:4;stroke-dasharray:none;stroke-opacity:0.13559325"
       id="path4179"
       sodipodi:sides="6"
       sodipodi:cx="368.7805"
       sodipodi:cy="927.97193"
       sodipodi:r1="299.64734"
       sodipodi:r2="263.23318"
       sodipodi:arg1="0.31788957"
       sodipodi:arg2="0.84148835"
       inkscape:flatsided="true"
       inkscape:rounded="0"
       inkscape:randomized="0"
       d="M 653.41465,1021.6305 429.98689,1221.3016 145.35273,1127.6431 84.146327,834.31338 307.57408,634.64224 592.20824,728.30078 Z" />
    <text
       xml:space="preserve"
       style="font-style:normal;font-weight:normal;font-size:40px;line-height:125%;font-family:sans-serif;letter-spacing:0px;word-spacing:0px;fill:#000000;fill-opacity:1;stroke:none;stroke-width:1px;stroke-linecap:butt;stroke-linejoin:miter;stroke-opacity:1"
       x="703.90247"
       y="725.289"
       id="text4750"
       sodipodi:linespacing="125%"><tspan
         sodipodi:role="line"
         id="tspan4752"
         x="703.90247"
         y="725.289" /></text>
    <g
       transform="matrix(0.97983236,-0.19982131,0.19982131,0.97983236,-104.72202,489.29624)"
       style="font-style:normal;font-weight:normal;font-size:40px;line-height:125%;font-family:sans-serif;text-align:center;letter-spacing:0px;word-spacing:0px;text-anchor:middle;fill:#000000;fill-opacity:0.1372549;stroke:none;stroke-width:1px;stroke-linecap:butt;stroke-linejoin:miter;stroke-opacity:0.1372549"
       id="flowRoot4740">
      <path
         d="m 271.59277,446.3895 q 1.77735,0 2.69532,-0.78125 0.91796,-0.78125 0.91796,-2.30469 0,-1.50391 -0.91796,-2.28516 -0.91797,-0.80078 -2.69532,-0.80078 l -4.16015,0 0,6.17188 4.16015,0 z m 0.25391,12.7539 q 2.26562,0 3.39844,-0.95703 1.15234,-0.95703 1.15234,-2.89062 0,-1.89453 -1.13281,-2.83203 -1.13281,-0.95703 -3.41797,-0.95703 l -4.41406,0 0,7.63671 4.41406,0 z m 6.99219,-10.48828 q 2.42187,0.70313 3.75,2.59766 1.32812,1.89453 1.32812,4.64844 0,4.21875 -2.85156,6.28906 -2.85156,2.07031 -8.67188,2.07031 l -12.48046,0 0,-29.16015 11.28906,0 q 6.07422,0 8.78906,1.83593 2.73438,1.83594 2.73438,5.87891 0,2.12891 -0.9961,3.63281 -0.99609,1.48438 -2.89062,2.20703 z"
         style="font-weight:bold;text-align:center;text-anchor:middle;fill:#000000;fill-opacity:0.1372549;stroke:none;stroke-opacity:0.1372549"
         id="path6047" />
      <path
         d="m 290.38184,435.10044 7.51953,0 0,29.16015 -7.51953,0 0,-29.16015 z"
         style="font-weight:bold;text-align:center;text-anchor:middle;fill:#000000;fill-opacity:0.1372549;stroke:none;stroke-opacity:0.1372549"
         id="path6049" />
      <path
         d="m 331.51465,462.09262 q -2.8125,1.36719 -5.83985,2.05078 -3.02734,0.6836 -6.25,0.6836 -7.28515,0 -11.54296,-4.0625 -4.25782,-4.08203 -4.25782,-11.05469 0,-7.05078 4.33594,-11.09375 4.33594,-4.04297 11.875,-4.04297 2.91016,0 5.56641,0.54688 2.67578,0.54687 5.03906,1.62109 l 0,6.03516 q -2.44141,-1.38672 -4.86328,-2.07032 -2.40235,-0.68359 -4.82422,-0.68359 -4.49219,0 -6.93359,2.51953 -2.42188,2.5 -2.42188,7.16797 0,4.62891 2.34375,7.14844 2.34375,2.51953 6.66016,2.51953 1.17187,0 2.16797,-0.13672 1.01562,-0.15625 1.8164,-0.46875 l 0,-5.66406 -4.58984,0 0,-5.03906 11.71875,0 0,14.02343 z"
         style="font-weight:bold;text-align:center;text-anchor:middle;fill:#000000;fill-opacity:0.1372549;stroke:none;stroke-opacity:0.1372549"
         id="path6051" />
      <path
         d="m 342.31543,450.33481 0,10.68359 6.32812,0 q 3.1836,0 4.70704,-1.30859 1.54296,-1.32812 1.54296,-4.04297 0,-2.73437 -1.54296,-4.02344 -1.52344,-1.30859 -4.70704,-1.30859 l -6.32812,0 z m 0,-11.99219 0,8.78907 5.83984,0 q 2.89063,0 4.29688,-1.07422 1.42578,-1.09375 1.42578,-3.32032 0,-2.20703 -1.42578,-3.30078 -1.40625,-1.09375 -4.29688,-1.09375 l -5.83984,0 z m -3.94531,-3.24218 10.07812,0 q 4.51172,0 6.95313,1.875 2.4414,1.875 2.4414,5.33203 0,2.67578 -1.25,4.25781 -1.25,1.58203 -3.67187,1.97266 2.91015,0.625 4.51172,2.61718 1.62109,1.97266 1.62109,4.94141 0,3.90625 -2.65625,6.03516 -2.65625,2.1289 -7.55859,2.1289 l -10.46875,0 0,-29.16015 z"
         style=""
         id="path6053" />
      <path
         d="m 376.9248,437.77622 q -4.29687,0 -6.83593,3.20312 -2.51953,3.20313 -2.51953,8.73047 0,5.50781 2.51953,8.71094 2.53906,3.20312 6.83593,3.20312 4.29688,0 6.79688,-3.20312 2.51953,-3.20313 2.51953,-8.71094 0,-5.52734 -2.51953,-8.73047 -2.5,-3.20312 -6.79688,-3.20312 z m 0,-3.20313 q 6.13282,0 9.80469,4.1211 3.67188,4.10156 3.67188,11.01562 0,6.89453 -3.67188,11.01563 -3.67187,4.10156 -9.80469,4.10156 -6.15234,0 -9.84375,-4.10156 -3.67187,-4.10157 -3.67187,-11.01563 0,-6.91406 3.67187,-11.01562 3.69141,-4.1211 9.84375,-4.1211 z"
         style=""
         id="path6055" />
      <path
         d="m 405.61621,438.98715 -5.35156,14.51172 10.72265,0 -5.37109,-14.51172 z m -2.22656,-3.88671 4.47265,0 11.11329,29.16015 -4.10157,0 -2.65625,-7.48047 -13.14453,0 -2.65625,7.48047 -4.16015,0 11.13281,-29.16015 z"
         style=""
         id="path6057" />
      <path
         d="m 437.04199,450.58872 q 1.26953,0.42968 2.46094,1.83593 1.21094,1.40625 2.42187,3.86719 l 4.00391,7.96875 -4.23828,0 -3.73047,-7.48047 q -1.44531,-2.92968 -2.8125,-3.88672 -1.34766,-0.95703 -3.69141,-0.95703 l -4.29687,0 0,12.32422 -3.94531,0 0,-29.16015 8.90625,0 q 5,0 7.46093,2.08984 2.46094,2.08984 2.46094,6.30859 0,2.75391 -1.28906,4.57032 -1.26953,1.8164 -3.71094,2.51953 z m -9.88281,-12.2461 0,10.35157 4.96094,0 q 2.85156,0 4.29687,-1.3086 1.46485,-1.32812 1.46485,-3.88672 0,-2.55859 -1.46485,-3.84765 -1.44531,-1.3086 -4.29687,-1.3086 l -4.96094,0 z"
         style=""
         id="path6059" />
      <path
         d="m 454.97168,438.34262 0,22.67578 4.76562,0 q 6.03516,0 8.82813,-2.73437 2.8125,-2.73438 2.8125,-8.63281 0,-5.85938 -2.8125,-8.57422 -2.79297,-2.73438 -8.82813,-2.73438 l -4.76562,0 z m -3.94531,-3.24218 8.10547,0 q 8.47656,0 12.4414,3.53515 3.96485,3.51563 3.96485,11.01563 0,7.53906 -3.98438,11.07422 -3.98437,3.53515 -12.42187,3.53515 l -8.10547,0 0,-29.16015 z"
         style=""
         id="path6061" />
      <path
         d="m 499.28809,436.05747 0,3.84765 q -2.2461,-1.07422 -4.23829,-1.60156 -1.99218,-0.52734 -3.84765,-0.52734 -3.22266,0 -4.98047,1.25 -1.73828,1.25 -1.73828,3.55468 0,1.9336 1.15234,2.92969 1.17188,0.97656 4.41406,1.58203 l 2.38282,0.48828 q 4.41406,0.83985 6.5039,2.96875 2.10938,2.10938 2.10938,5.66407 0,4.23828 -2.85156,6.42578 -2.83204,2.1875 -8.32032,2.1875 -2.07031,0 -4.41406,-0.46875 -2.32422,-0.46875 -4.82422,-1.38672 l 0,-4.0625 q 2.40235,1.34766 4.70703,2.03125 2.30469,0.68359 4.53125,0.68359 3.37891,0 5.21485,-1.32812 1.83593,-1.32813 1.83593,-3.78906 0,-2.14844 -1.32812,-3.35938 -1.30859,-1.21094 -4.31641,-1.81641 l -2.40234,-0.46875 q -4.41406,-0.8789 -6.38672,-2.7539 -1.97266,-1.875 -1.97266,-5.21485 0,-3.86718 2.71485,-6.09375 2.73437,-2.22656 7.51953,-2.22656 2.05078,0 4.17969,0.3711 2.1289,0.37109 4.35547,1.11328 z"
         style=""
         id="path6063" />
      <path
         d="m 225.03271,478.4068 6.28418,0 0,1.24512 -4.80468,0 0,3.22266 4.33593,0 0,1.24511 -4.33593,0 0,5.22217 -1.4795,0 0,-10.93506 z"
         style="text-align:center;text-anchor:middle;stroke:none;stroke-opacity:0.1372549"
         id="path6065" />
      <path
         d="m 237.28613,482.3985 q -0.22705,-0.13183 -0.49804,-0.19043 -0.26368,-0.0659 -0.58594,-0.0659 -1.14258,0 -1.75781,0.74707 -0.60791,0.73974 -0.60791,2.13134 l 0,4.32129 -1.35498,0 0,-8.20312 1.35498,0 0,1.27441 q 0.4248,-0.74707 1.10595,-1.10596 0.68116,-0.36621 1.65528,-0.36621 0.13916,0 0.30761,0.022 0.16846,0.0146 0.37354,0.0513 l 0.007,1.38427 z"
         style="text-align:center;text-anchor:middle;stroke:none;stroke-opacity:0.1372549"
         id="path6067" />
      <path
         d="m 241.5708,482.08356 q -1.08398,0 -1.71387,0.84961 -0.62988,0.84229 -0.62988,2.31445 0,1.47217 0.62256,2.32178 0.62988,0.84229 1.72119,0.84229 1.07666,0 1.70654,-0.84961 0.62989,-0.84961 0.62989,-2.31446 0,-1.45752 -0.62989,-2.30712 -0.62988,-0.85694 -1.70654,-0.85694 z m 0,-1.14258 q 1.75781,0 2.76123,1.14258 1.00342,1.14258 1.00342,3.16406 0,2.01416 -1.00342,3.16407 -1.00342,1.14257 -2.76123,1.14257 -1.76514,0 -2.76855,-1.14257 -0.9961,-1.14991 -0.9961,-3.16407 0,-2.02148 0.9961,-3.16406 1.00341,-1.14258 2.76855,-1.14258 z"
         style="text-align:center;text-anchor:middle;stroke:none;stroke-opacity:0.1372549"
         id="path6069" />
      <path
         d="m 253.94873,482.71344 q 0.50537,-0.9082 1.2085,-1.34033 0.70312,-0.43213 1.65527,-0.43213 1.28174,0 1.97754,0.90088 0.6958,0.89356 0.6958,2.54883 l 0,4.95117 -1.35498,0 0,-4.90722 q 0,-1.1792 -0.41748,-1.75049 -0.41748,-0.57129 -1.27442,-0.57129 -1.04736,0 -1.65527,0.6958 -0.60791,0.6958 -0.60791,1.89697 l 0,4.63623 -1.35498,0 0,-4.90722 q 0,-1.18653 -0.41748,-1.75049 -0.41748,-0.57129 -1.28906,-0.57129 -1.03272,0 -1.64063,0.70312 -0.60791,0.6958 -0.60791,1.88965 l 0,4.63623 -1.35498,0 0,-8.20312 1.35498,0 0,1.27441 q 0.46143,-0.75439 1.10596,-1.11328 0.64453,-0.35889 1.53076,-0.35889 0.89356,0 1.51611,0.45411 0.62989,0.4541 0.93018,1.31835 z"
         style="text-align:center;text-anchor:middle;stroke:none;stroke-opacity:0.1372549"
         id="path6071" />
      <path
         d="m 266.37061,481.13874 6.40136,0 0,1.23047 -5.06836,5.89599 5.06836,0 0,1.07666 -6.58447,0 0,-1.23047 5.06836,-5.89599 -4.88525,0 0,-1.07666 z"
         style="text-align:center;text-anchor:middle;stroke:none;stroke-opacity:0.1372549"
         id="path6073" />
      <path
         d="m 281.854,484.90339 0,0.65918 -6.19629,0 q 0.0879,1.3916 0.83497,2.12402 0.75439,0.7251 2.09472,0.7251 0.77637,0 1.50147,-0.19043 0.73242,-0.19043 1.45019,-0.57129 l 0,1.27441 q -0.7251,0.30762 -1.48681,0.46875 -0.76172,0.16113 -1.54541,0.16113 -1.96289,0 -3.1128,-1.14257 -1.14258,-1.14258 -1.14258,-3.09082 0,-2.01416 1.08399,-3.19336 1.09131,-1.18653 2.93701,-1.18653 1.65527,0 2.61475,1.06934 0.96679,1.06201 0.96679,2.89307 z m -1.34765,-0.39551 q -0.0147,-1.10596 -0.62256,-1.76514 -0.60059,-0.65918 -1.59668,-0.65918 -1.12793,0 -1.80908,0.63721 -0.67383,0.63721 -0.77637,1.79443 l 4.80469,-0.007 z"
         style="text-align:center;text-anchor:middle;stroke:none;stroke-opacity:0.1372549"
         id="path6075" />
      <path
         d="m 288.81934,482.3985 q -0.22705,-0.13183 -0.49805,-0.19043 -0.26367,-0.0659 -0.58594,-0.0659 -1.14258,0 -1.75781,0.74707 -0.60791,0.73974 -0.60791,2.13134 l 0,4.32129 -1.35498,0 0,-8.20312 1.35498,0 0,1.27441 q 0.4248,-0.74707 1.10596,-1.10596 0.68115,-0.36621 1.65527,-0.36621 0.13916,0 0.30762,0.022 0.16845,0.0146 0.37353,0.0513 l 0.007,1.38427 z"
         style="text-align:center;text-anchor:middle;stroke:none;stroke-opacity:0.1372549"
         id="path6077" />
      <path
         d="m 293.104,482.08356 q -1.08398,0 -1.71386,0.84961 -0.62989,0.84229 -0.62989,2.31445 0,1.47217 0.62256,2.32178 0.62989,0.84229 1.72119,0.84229 1.07666,0 1.70655,-0.84961 0.62988,-0.84961 0.62988,-2.31446 0,-1.45752 -0.62988,-2.30712 -0.62989,-0.85694 -1.70655,-0.85694 z m 0,-1.14258 q 1.75782,0 2.76123,1.14258 1.00342,1.14258 1.00342,3.16406 0,2.01416 -1.00342,3.16407 -1.00341,1.14257 -2.76123,1.14257 -1.76513,0 -2.76855,-1.14257 -0.99609,-1.14991 -0.99609,-3.16407 0,-2.02148 0.99609,-3.16406 1.00342,-1.14258 2.76855,-1.14258 z"
         style="text-align:center;text-anchor:middle;stroke:none;stroke-opacity:0.1372549"
         id="path6079" />
      <path
         d="m 305.20361,478.80964 0,2.3291 2.77588,0 0,1.04736 -2.77588,0 0,4.45313 q 0,1.00341 0.271,1.28906 0.27832,0.28564 1.1206,0.28564 l 1.38428,0 0,1.12793 -1.38428,0 q -1.56005,0 -2.15332,-0.57861 -0.59326,-0.58594 -0.59326,-2.12402 l 0,-4.45313 -0.98877,0 0,-1.04736 0.98877,0 0,-2.3291 1.35498,0 z"
         style="text-align:center;text-anchor:middle;stroke:none;stroke-opacity:0.1372549"
         id="path6081" />
      <path
         d="m 312.93799,482.08356 q -1.08399,0 -1.71387,0.84961 -0.62988,0.84229 -0.62988,2.31445 0,1.47217 0.62256,2.32178 0.62988,0.84229 1.72119,0.84229 1.07666,0 1.70654,-0.84961 0.62988,-0.84961 0.62988,-2.31446 0,-1.45752 -0.62988,-2.30712 -0.62988,-0.85694 -1.70654,-0.85694 z m 0,-1.14258 q 1.75781,0 2.76123,1.14258 1.00342,1.14258 1.00342,3.16406 0,2.01416 -1.00342,3.16407 -1.00342,1.14257 -2.76123,1.14257 -1.76514,0 -2.76856,-1.14257 -0.99609,-1.14991 -0.99609,-3.16407 0,-2.02148 0.99609,-3.16406 1.00342,-1.14258 2.76856,-1.14258 z"
         style="text-align:center;text-anchor:middle;stroke:none;stroke-opacity:0.1372549"
         id="path6083" />
      <path
         d="m 325.24268,484.11969 0,4.00635 2.37304,0 q 1.19385,0 1.76514,-0.49072 0.57861,-0.49805 0.57861,-1.51611 0,-1.02539 -0.57861,-1.50879 -0.57129,-0.49073 -1.76514,-0.49073 l -2.37304,0 z m 0,-4.49707 0,3.2959 2.18994,0 q 1.08398,0 1.61133,-0.40283 0.53466,-0.41016 0.53466,-1.24512 0,-0.82763 -0.53466,-1.23779 -0.52735,-0.41016 -1.61133,-0.41016 l -2.18994,0 z m -1.4795,-1.21582 3.7793,0 q 1.69189,0 2.60742,0.70313 0.91553,0.70312 0.91553,1.99951 0,1.00342 -0.46875,1.59668 -0.46875,0.59326 -1.37695,0.73975 1.09131,0.23437 1.69189,0.98144 0.60791,0.73975 0.60791,1.85303 0,1.46484 -0.99609,2.26318 -0.9961,0.79834 -2.83448,0.79834 l -3.92578,0 0,-10.93506 z"
         style="text-align:center;text-anchor:middle;stroke:none;stroke-opacity:0.1372549"
         id="path6085" />
      <path
         d="m 333.98779,481.13874 1.34766,0 0,8.20312 -1.34766,0 0,-8.20312 z m 0,-3.19336 1.34766,0 0,1.70654 -1.34766,0 0,-1.70654 z"
         style="text-align:center;text-anchor:middle;stroke:none;stroke-opacity:0.1372549"
         id="path6087" />
      <path
         d="m 343.5459,485.14509 q 0,-1.46485 -0.60791,-2.27051 -0.60059,-0.80567 -1.6919,-0.80567 -1.08398,0 -1.69189,0.80567 -0.60059,0.80566 -0.60059,2.27051 0,1.45751 0.60059,2.26318 0.60791,0.80566 1.69189,0.80566 1.09131,0 1.6919,-0.80566 0.60791,-0.80567 0.60791,-2.26318 z m 1.34765,3.17871 q 0,2.09472 -0.93017,3.11279 -0.93018,1.02539 -2.84912,1.02539 -0.71045,0 -1.34033,-0.10986 -0.62989,-0.10254 -1.22315,-0.32227 l 0,-1.31103 q 0.59326,0.32226 1.17188,0.47607 0.57861,0.15381 1.1792,0.15381 1.32568,0 1.98486,-0.6958 0.65918,-0.68848 0.65918,-2.0874 l 0,-0.66651 q -0.41748,0.7251 -1.06934,1.08399 -0.65185,0.35888 -1.56006,0.35888 -1.50879,0 -2.43164,-1.1499 -0.92285,-1.1499 -0.92285,-3.04687 0,-1.9043 0.92285,-3.0542 0.92285,-1.14991 2.43164,-1.14991 0.90821,0 1.56006,0.35889 0.65186,0.35889 1.06934,1.08398 l 0,-1.24511 1.34765,0 0,7.18506 z"
         style="text-align:center;text-anchor:middle;stroke:none;stroke-opacity:0.1372549"
         id="path6089" />
      <path
         d="m 349.20752,479.62262 0,8.50342 1.78711,0 q 2.26318,0 3.31055,-1.02539 1.05468,-1.02539 1.05468,-3.2373 0,-2.19727 -1.05468,-3.21534 -1.04737,-1.02539 -3.31055,-1.02539 l -1.78711,0 z m -1.47949,-1.21582 3.03955,0 q 3.17871,0 4.66553,1.32569 1.48681,1.31836 1.48681,4.13086 0,2.82715 -1.49414,4.15283 -1.49414,1.32568 -4.6582,1.32568 l -3.03955,0 0,-10.93506 z"
         style="text-align:center;text-anchor:middle;stroke:none;stroke-opacity:0.1372549"
         id="path6091" />
      <path
         d="m 362.94043,485.21833 q -1.6333,0 -2.26318,0.37353 -0.62989,0.37354 -0.62989,1.27442 0,0.71777 0.46875,1.14257 0.47608,0.41749 1.28907,0.41749 1.1206,0 1.79443,-0.79102 0.68115,-0.79834 0.68115,-2.1167 l 0,-0.30029 -1.34033,0 z m 2.68799,-0.55664 0,4.68017 -1.34766,0 0,-1.24511 q -0.46142,0.74707 -1.1499,1.10595 -0.68848,0.35156 -1.68457,0.35156 -1.25977,0 -2.00684,-0.70312 -0.73974,-0.71045 -0.73974,-1.89697 0,-1.38428 0.92285,-2.08741 0.93017,-0.70312 2.76855,-0.70312 l 1.88965,0 0,-0.13184 q 0,-0.93017 -0.61523,-1.43554 -0.60791,-0.5127 -1.71387,-0.5127 -0.70312,0 -1.36963,0.16846 -0.6665,0.16846 -1.28174,0.50537 l 0,-1.24512 q 0.73975,-0.28564 1.43555,-0.4248 0.6958,-0.14649 1.35498,-0.14649 1.77979,0 2.65869,0.92286 0.87891,0.92285 0.87891,2.79785 z"
         style="text-align:center;text-anchor:middle;stroke:none;stroke-opacity:0.1372549"
         id="path6093" />
      <path
         d="m 369.74463,478.80964 0,2.3291 2.77588,0 0,1.04736 -2.77588,0 0,4.45313 q 0,1.00341 0.27099,1.28906 0.27833,0.28564 1.12061,0.28564 l 1.38428,0 0,1.12793 -1.38428,0 q -1.56006,0 -2.15332,-0.57861 -0.59326,-0.58594 -0.59326,-2.12402 l 0,-4.45313 -0.98877,0 0,-1.04736 0.98877,0 0,-2.3291 1.35498,0 z"
         style="text-align:center;text-anchor:middle;stroke:none;stroke-opacity:0.1372549"
         id="path6095" />
      <path
         d="m 378.02832,485.21833 q -1.6333,0 -2.26318,0.37353 -0.62989,0.37354 -0.62989,1.27442 0,0.71777 0.46875,1.14257 0.47608,0.41749 1.28907,0.41749 1.1206,0 1.79443,-0.79102 0.68115,-0.79834 0.68115,-2.1167 l 0,-0.30029 -1.34033,0 z m 2.68799,-0.55664 0,4.68017 -1.34766,0 0,-1.24511 q -0.46142,0.74707 -1.1499,1.10595 -0.68848,0.35156 -1.68457,0.35156 -1.25977,0 -2.00684,-0.70312 -0.73974,-0.71045 -0.73974,-1.89697 0,-1.38428 0.92285,-2.08741 0.93017,-0.70312 2.76855,-0.70312 l 1.88965,0 0,-0.13184 q 0,-0.93017 -0.61523,-1.43554 -0.60791,-0.5127 -1.71387,-0.5127 -0.70312,0 -1.36963,0.16846 -0.6665,0.16846 -1.28174,0.50537 l 0,-1.24512 q 0.73975,-0.28564 1.43555,-0.4248 0.6958,-0.14649 1.35498,-0.14649 1.77979,0 2.65869,0.92286 0.87891,0.92285 0.87891,2.79785 z"
         style="text-align:center;text-anchor:middle;stroke:none;stroke-opacity:0.1372549"
         id="path6097" />
      <path
         d="m 388.2749,481.13874 1.34766,0 0,8.20312 -1.34766,0 0,-8.20312 z m 0,-3.19336 1.34766,0 0,1.70654 -1.34766,0 0,-1.70654 z"
         style="text-align:center;text-anchor:middle;stroke:none;stroke-opacity:0.1372549"
         id="path6099" />
      <path
         d="m 399.25391,484.39069 0,4.95117 -1.34766,0 0,-4.90722 q 0,-1.16455 -0.4541,-1.74317 -0.4541,-0.57861 -1.36231,-0.57861 -1.0913,0 -1.72119,0.6958 -0.62988,0.6958 -0.62988,1.89697 l 0,4.63623 -1.35498,0 0,-8.20312 1.35498,0 0,1.27441 q 0.4834,-0.73974 1.13525,-1.10596 0.65918,-0.36621 1.51612,-0.36621 1.41357,0 2.13867,0.87891 0.7251,0.87158 0.7251,2.5708 z"
         style="text-align:center;text-anchor:middle;stroke:none;stroke-opacity:0.1372549"
         id="path6101" />
      <path
         d="m 406.73193,477.94538 1.34766,0 0,11.39648 -1.34766,0 0,-11.39648 z"
         style="text-align:center;text-anchor:middle;stroke:none;stroke-opacity:0.1372549"
         id="path6103" />
      <path
         d="m 417.90869,484.90339 0,0.65918 -6.19629,0 q 0.0879,1.3916 0.83496,2.12402 0.7544,0.7251 2.09473,0.7251 0.77637,0 1.50146,-0.19043 0.73243,-0.19043 1.4502,-0.57129 l 0,1.27441 q -0.7251,0.30762 -1.48682,0.46875 -0.76172,0.16113 -1.54541,0.16113 -1.96289,0 -3.11279,-1.14257 -1.14258,-1.14258 -1.14258,-3.09082 0,-2.01416 1.08399,-3.19336 1.09131,-1.18653 2.93701,-1.18653 1.65527,0 2.61474,1.06934 0.9668,1.06201 0.9668,2.89307 z m -1.34765,-0.39551 q -0.0147,-1.10596 -0.62256,-1.76514 -0.60059,-0.65918 -1.59668,-0.65918 -1.12793,0 -1.80909,0.63721 -0.67382,0.63721 -0.77636,1.79443 l 4.80469,-0.007 z"
         style="text-align:center;text-anchor:middle;stroke:none;stroke-opacity:0.1372549"
         id="path6105" />
      <path
         d="m 425.3501,481.38044 0,1.27441 q -0.57129,-0.29297 -1.18653,-0.43945 -0.61523,-0.14649 -1.27441,-0.14649 -1.00342,0 -1.50879,0.30762 -0.49805,0.30762 -0.49805,0.92285 0,0.46875 0.35889,0.73975 0.35889,0.26367 1.44287,0.50537 l 0.46143,0.10254 q 1.43554,0.30762 2.03613,0.87158 0.60791,0.55664 0.60791,1.56006 0,1.14258 -0.9082,1.80908 -0.90088,0.6665 -2.48291,0.6665 -0.65918,0 -1.37696,-0.13183 -0.71044,-0.12451 -1.50146,-0.38086 l 0,-1.3916 q 0.74707,0.38818 1.47217,0.58594 0.7251,0.19043 1.43554,0.19043 0.95215,0 1.46485,-0.32227 0.51269,-0.32959 0.51269,-0.92285 0,-0.54932 -0.37353,-0.84229 -0.36621,-0.29297 -1.61865,-0.56396 l -0.46875,-0.10987 q -1.25245,-0.26367 -1.80909,-0.80566 -0.55664,-0.54932 -0.55664,-1.50146 0,-1.15723 0.82032,-1.78711 0.82031,-0.62989 2.3291,-0.62989 0.74707,0 1.40625,0.10987 0.65918,0.10986 1.21582,0.32959 z"
         style="text-align:center;text-anchor:middle;stroke:none;stroke-opacity:0.1372549"
         id="path6107" />
      <path
         d="m 433.17236,481.38044 0,1.27441 q -0.57129,-0.29297 -1.18652,-0.43945 -0.61523,-0.14649 -1.27441,-0.14649 -1.00342,0 -1.50879,0.30762 -0.49805,0.30762 -0.49805,0.92285 0,0.46875 0.35889,0.73975 0.35888,0.26367 1.44287,0.50537 l 0.46142,0.10254 q 1.43555,0.30762 2.03614,0.87158 0.60791,0.55664 0.60791,1.56006 0,1.14258 -0.90821,1.80908 -0.90088,0.6665 -2.48291,0.6665 -0.65918,0 -1.37695,-0.13183 -0.71045,-0.12451 -1.50146,-0.38086 l 0,-1.3916 q 0.74707,0.38818 1.47216,0.58594 0.7251,0.19043 1.43555,0.19043 0.95215,0 1.46484,-0.32227 0.5127,-0.32959 0.5127,-0.92285 0,-0.54932 -0.37354,-0.84229 -0.36621,-0.29297 -1.61865,-0.56396 l -0.46875,-0.10987 q -1.25244,-0.26367 -1.80908,-0.80566 -0.55664,-0.54932 -0.55664,-1.50146 0,-1.15723 0.82031,-1.78711 0.82031,-0.62989 2.3291,-0.62989 0.74707,0 1.40625,0.10987 0.65918,0.10986 1.21582,0.32959 z"
         style="text-align:center;text-anchor:middle;stroke:none;stroke-opacity:0.1372549"
         id="path6109" />
      <path
         d="m 441.87354,478.80964 0,2.3291 2.77587,0 0,1.04736 -2.77587,0 0,4.45313 q 0,1.00341 0.27099,1.28906 0.27832,0.28564 1.12061,0.28564 l 1.38427,0 0,1.12793 -1.38427,0 q -1.56006,0 -2.15332,-0.57861 -0.59327,-0.58594 -0.59327,-2.12402 l 0,-4.45313 -0.98876,0 0,-1.04736 0.98876,0 0,-2.3291 1.35499,0 z"
         style="font-size:15px;text-align:center;text-anchor:middle;stroke:none;stroke-opacity:0.1372549"
         id="path6111" />
      <path
         d="m 453.24805,484.39069 0,4.95117 -1.34766,0 0,-4.90722 q 0,-1.16455 -0.4541,-1.74317 -0.4541,-0.57861 -1.36231,-0.57861 -1.0913,0 -1.72119,0.6958 -0.62988,0.6958 -0.62988,1.89697 l 0,4.63623 -1.35498,0 0,-11.39648 1.35498,0 0,4.46777 q 0.4834,-0.73974 1.13525,-1.10596 0.65918,-0.36621 1.51612,-0.36621 1.41357,0 2.13867,0.87891 0.7251,0.87158 0.7251,2.5708 z"
         style="font-size:15px;text-align:center;text-anchor:middle;stroke:none;stroke-opacity:0.1372549"
         id="path6113" />
      <path
         d="m 462.96729,484.90339 0,0.65918 -6.19629,0 q 0.0879,1.3916 0.83496,2.12402 0.75439,0.7251 2.09472,0.7251 0.77637,0 1.50147,-0.19043 0.73242,-0.19043 1.45019,-0.57129 l 0,1.27441 q -0.72509,0.30762 -1.48681,0.46875 -0.76172,0.16113 -1.54541,0.16113 -1.96289,0 -3.1128,-1.14257 -1.14257,-1.14258 -1.14257,-3.09082 0,-2.01416 1.08398,-3.19336 1.09131,-1.18653 2.93701,-1.18653 1.65528,0 2.61475,1.06934 0.9668,1.06201 0.9668,2.89307 z m -1.34766,-0.39551 q -0.0146,-1.10596 -0.62256,-1.76514 -0.60059,-0.65918 -1.59668,-0.65918 -1.12793,0 -1.80908,0.63721 -0.67383,0.63721 -0.77637,1.79443 l 4.80469,-0.007 z"
         style="font-size:15px;text-align:center;text-anchor:middle;stroke:none;stroke-opacity:0.1372549"
         id="path6115" />
      <path
         d="m 471.99805,484.39069 0,4.95117 -1.34766,0 0,-4.90722 q 0,-1.16455 -0.4541,-1.74317 -0.4541,-0.57861 -1.36231,-0.57861 -1.0913,0 -1.72119,0.6958 -0.62988,0.6958 -0.62988,1.89697 l 0,4.63623 -1.35498,0 0,-8.20312 1.35498,0 0,1.27441 q 0.4834,-0.73974 1.13525,-1.10596 0.65918,-0.36621 1.51612,-0.36621 1.41357,0 2.13867,0.87891 0.7251,0.87158 0.7251,2.5708 z"
         style="font-size:15px;text-align:center;text-anchor:middle;stroke:none;stroke-opacity:0.1372549"
         id="path6117" />
      <path
         d="m 483.2041,485.21833 q -1.6333,0 -2.26318,0.37353 -0.62988,0.37354 -0.62988,1.27442 0,0.71777 0.46875,1.14257 0.47607,0.41749 1.28906,0.41749 1.1206,0 1.79443,-0.79102 0.68115,-0.79834 0.68115,-2.1167 l 0,-0.30029 -1.34033,0 z m 2.68799,-0.55664 0,4.68017 -1.34766,0 0,-1.24511 q -0.46142,0.74707 -1.1499,1.10595 -0.68848,0.35156 -1.68457,0.35156 -1.25976,0 -2.00684,-0.70312 -0.73974,-0.71045 -0.73974,-1.89697 0,-1.38428 0.92285,-2.08741 0.93018,-0.70312 2.76856,-0.70312 l 1.88964,0 0,-0.13184 q 0,-0.93017 -0.61523,-1.43554 -0.60791,-0.5127 -1.71387,-0.5127 -0.70312,0 -1.36963,0.16846 -0.6665,0.16846 -1.28174,0.50537 l 0,-1.24512 q 0.73975,-0.28564 1.43555,-0.4248 0.6958,-0.14649 1.35498,-0.14649 1.77979,0 2.65869,0.92286 0.87891,0.92285 0.87891,2.79785 z"
         style="font-size:15px;text-align:center;text-anchor:middle;stroke:none;stroke-opacity:0.1372549"
         id="path6119" />
      <path
         d="m 495.49414,484.39069 0,4.95117 -1.34766,0 0,-4.90722 q 0,-1.16455 -0.4541,-1.74317 -0.4541,-0.57861 -1.3623,-0.57861 -1.09131,0 -1.72119,0.6958 -0.62989,0.6958 -0.62989,1.89697 l 0,4.63623 -1.35498,0 0,-8.20312 1.35498,0 0,1.27441 q 0.4834,-0.73974 1.13526,-1.10596 0.65918,-0.36621 1.51611,-0.36621 1.41358,0 2.13867,0.87891 0.7251,0.87158 0.7251,2.5708 z"
         style="font-size:15px;text-align:center;text-anchor:middle;stroke:none;stroke-opacity:0.1372549"
         id="path6121" />
      <path
         d="m 509.79102,484.39069 0,4.95117 -1.34766,0 0,-4.90722 q 0,-1.16455 -0.4541,-1.74317 -0.4541,-0.57861 -1.36231,-0.57861 -1.09131,0 -1.72119,0.6958 -0.62988,0.6958 -0.62988,1.89697 l 0,4.63623 -1.35498,0 0,-11.39648 1.35498,0 0,4.46777 q 0.4834,-0.73974 1.13525,-1.10596 0.65918,-0.36621 1.51612,-0.36621 1.41357,0 2.13867,0.87891 0.7251,0.87158 0.7251,2.5708 z"
         style="font-size:15px;text-align:center;text-anchor:middle;stroke:none;stroke-opacity:0.1372549"
         id="path6123" />
      <path
         d="m 515.67236,482.08356 q -1.08398,0 -1.71386,0.84961 -0.62989,0.84229 -0.62989,2.31445 0,1.47217 0.62256,2.32178 0.62988,0.84229 1.72119,0.84229 1.07666,0 1.70655,-0.84961 0.62988,-0.84961 0.62988,-2.31446 0,-1.45752 -0.62988,-2.30712 -0.62989,-0.85694 -1.70655,-0.85694 z m 0,-1.14258 q 1.75782,0 2.76123,1.14258 1.00342,1.14258 1.00342,3.16406 0,2.01416 -1.00342,3.16407 -1.00341,1.14257 -2.76123,1.14257 -1.76513,0 -2.76855,-1.14257 -0.9961,-1.14991 -0.9961,-3.16407 0,-2.02148 0.9961,-3.16406 1.00342,-1.14258 2.76855,-1.14258 z"
         style="font-size:15px;text-align:center;text-anchor:middle;stroke:none;stroke-opacity:0.1372549"
         id="path6125" />
      <path
         d="m 521.52441,486.10456 0,-4.96582 1.34766,0 0,4.91455 q 0,1.16455 0.4541,1.75049 0.4541,0.57861 1.36231,0.57861 1.09131,0 1.72119,-0.6958 0.6372,-0.6958 0.6372,-1.89697 l 0,-4.65088 1.34766,0 0,8.20312 -1.34766,0 0,-1.25976 q -0.49072,0.74707 -1.14257,1.11328 -0.64453,0.35888 -1.50147,0.35888 -1.41357,0 -2.14599,-0.8789 -0.73243,-0.87891 -0.73243,-2.5708 z m 3.39112,-5.16358 0,0 z"
         style="font-size:15px;text-align:center;text-anchor:middle;stroke:none;stroke-opacity:0.1372549"
         id="path6127" />
      <path
         d="m 535.93848,482.3985 q -0.22705,-0.13183 -0.49805,-0.19043 -0.26367,-0.0659 -0.58594,-0.0659 -1.14258,0 -1.75781,0.74707 -0.60791,0.73974 -0.60791,2.13134 l 0,4.32129 -1.35498,0 0,-8.20312 1.35498,0 0,1.27441 q 0.4248,-0.74707 1.10596,-1.10596 0.68115,-0.36621 1.65527,-0.36621 0.13916,0 0.30762,0.022 0.16845,0.0146 0.37353,0.0513 l 0.007,1.38427 z"
         style="font-size:15px;text-align:center;text-anchor:middle;stroke:none;stroke-opacity:0.1372549"
         id="path6129" />
    </g>
  </g>
</svg>
